<svg version="1.0" xmlns="http://www.w3.org/2000/svg"
     width="128.000000pt" height="128.000000pt" viewBox="0 0 128.000000 128.000000"
     preserveAspectRatio="xMidYMid meet">

    <style>
        g {
        fill: black;
        }

        @media (prefers-color-scheme: dark) {
        g {
        fill: white;
        }
        }
    </style>
    <g transform="translate(0.000000,128.000000) scale(0.100000,-0.100000)" stroke="none">
        <path d="M257 1253 c-39 -10 -47 -52 -47 -258 0 -188 1 -195 20 -195 19 0 20
7 20 194 0 107 3 201 6 210 5 14 43 16 320 16 l314 0 0 -89 c0 -49 3 -97 6
-106 12 -30 60 -45 149 -45 l85 0 0 -444 c0 -244 -3 -451 -6 -460 -5 -14 -53
-16 -428 -16 -315 0 -425 3 -434 12 -7 7 -12 44 -12 96 0 74 -2 83 -17 80 -15
-3 -19 -16 -21 -77 -3 -85 9 -124 44 -140 17 -8 154 -11 445 -11 l420 0 24 25
25 24 0 458 0 458 -138 138 -137 137 -310 -1 c-171 -1 -318 -3 -328 -6z m769
-231 c-90 -6 -96 -1 -96 75 l0 67 73 -70 72 -69 -49 -3z"/>
        <path d="M154 748 c-38 -18 -44 -50 -44 -234 0 -172 0 -175 25 -199 l24 -25
401 0 401 0 24 25 c25 24 25 27 25 199 0 187 -6 216 -47 235 -32 15 -779 14
-809 -1z m288 -138 c40 -50 1 -130 -63 -130 -27 0 -29 -3 -29 -40 0 -39 -1
-40 -35 -40 l-35 0 0 121 0 121 71 -4 c61 -3 74 -7 91 -28z m197 21 c8 -5 11
-16 6 -30 -5 -17 -13 -21 -43 -19 -52 4 -52 -13 -1 -43 39 -23 44 -29 47 -67
3 -34 -1 -43 -21 -57 -59 -38 -147 -27 -147 19 0 24 3 25 50 23 53 -2 67 9 35
27 -66 37 -75 47 -75 86 0 29 6 43 22 54 24 17 104 21 127 7z m216 -21 c0 -20
-6 -26 -27 -28 l-28 -3 0 -90 0 -89 -35 0 -35 0 0 90 0 90 -30 0 c-27 0 -30 3
-30 30 l0 31 93 -3 c91 -3 92 -3 92 -28z"/>
        <path d="M350 555 c0 -27 1 -28 24 -19 24 9 20 44 -4 44 -15 0 -20 -7 -20 -25z"/>
    </g>
</svg>
